G75*
%MOIN*%
%OFA0B0*%
%FSLAX25Y25*%
%IPPOS*%
%LPD*%
%AMOC8*
5,1,8,0,0,1.08239X$1,22.5*
%
%ADD10OC8,0.05200*%
%ADD11C,0.05200*%
%ADD12C,0.06600*%
%ADD13OC8,0.06000*%
%ADD14C,0.07000*%
%ADD15C,0.04000*%
D10*
X0016000Y0046000D03*
X0031000Y0046000D03*
X0031000Y0086000D03*
X0016000Y0086000D03*
X0251000Y0126000D03*
X0251000Y0166000D03*
D11*
X0025100Y0116000D02*
X0019900Y0116000D01*
X0019900Y0106000D02*
X0025100Y0106000D01*
X0025100Y0096000D02*
X0019900Y0096000D01*
D12*
X0291000Y0102700D02*
X0291000Y0109300D01*
X0301000Y0109300D02*
X0301000Y0102700D01*
X0311000Y0102700D02*
X0311000Y0109300D01*
D13*
X0266000Y0096000D03*
X0266000Y0041000D03*
X0066000Y0041000D03*
X0066000Y0096000D03*
D14*
X0091000Y0121000D03*
X0101000Y0121000D03*
X0111000Y0121000D03*
X0121000Y0121000D03*
X0131000Y0121000D03*
X0141000Y0121000D03*
X0151000Y0121000D03*
X0161000Y0121000D03*
X0171000Y0121000D03*
X0181000Y0121000D03*
X0191000Y0121000D03*
X0201000Y0121000D03*
X0211000Y0121000D03*
X0221000Y0121000D03*
X0231000Y0121000D03*
X0241000Y0121000D03*
X0241000Y0021000D03*
X0231000Y0021000D03*
X0221000Y0021000D03*
X0211000Y0021000D03*
X0201000Y0021000D03*
X0191000Y0021000D03*
X0181000Y0021000D03*
X0171000Y0021000D03*
X0161000Y0021000D03*
X0151000Y0021000D03*
X0141000Y0021000D03*
X0131000Y0021000D03*
X0121000Y0021000D03*
X0111000Y0021000D03*
X0101000Y0021000D03*
X0091000Y0021000D03*
X0086000Y0256000D03*
X0076000Y0256000D03*
X0066000Y0256000D03*
X0056000Y0256000D03*
X0046000Y0256000D03*
X0036000Y0256000D03*
X0096000Y0256000D03*
X0106000Y0256000D03*
X0116000Y0256000D03*
X0126000Y0256000D03*
X0136000Y0256000D03*
X0146000Y0256000D03*
X0156000Y0256000D03*
X0166000Y0256000D03*
X0176000Y0256000D03*
X0186000Y0256000D03*
D15*
X0006000Y0046000D02*
X0046000Y0006000D01*
X0261000Y0006000D01*
X0311000Y0056000D01*
X0311000Y0106000D01*
X0311000Y0116000D01*
X0301000Y0126000D01*
X0251000Y0126000D01*
X0266000Y0111000D01*
X0266000Y0096000D01*
X0291000Y0096000D02*
X0291000Y0106000D01*
X0291000Y0211000D01*
X0246000Y0256000D01*
X0186000Y0256000D01*
X0186000Y0261000D01*
X0181000Y0266000D01*
X0081000Y0266000D01*
X0076000Y0261000D01*
X0076000Y0256000D01*
X0076000Y0261000D01*
X0071000Y0266000D01*
X0041000Y0266000D01*
X0036000Y0261000D01*
X0036000Y0256000D01*
X0046000Y0256000D02*
X0046000Y0139500D01*
X0045016Y0138516D01*
X0041750Y0135250D01*
X0022500Y0116000D01*
X0011000Y0116000D01*
X0006000Y0111000D01*
X0006000Y0046000D01*
X0016000Y0046000D02*
X0031000Y0046000D01*
X0036000Y0046000D01*
X0066000Y0016000D01*
X0086000Y0016000D01*
X0091000Y0021000D01*
X0066000Y0041000D02*
X0051000Y0056000D01*
X0051000Y0086000D01*
X0041000Y0096000D01*
X0022500Y0096000D01*
X0022500Y0092500D01*
X0016000Y0086000D01*
X0022500Y0106000D02*
X0051000Y0106000D01*
X0056000Y0111000D01*
X0056000Y0256000D01*
X0066000Y0256000D02*
X0066000Y0196000D01*
X0101000Y0161000D01*
X0101000Y0121000D01*
X0091000Y0121000D02*
X0091000Y0116000D01*
X0091000Y0111000D01*
X0126000Y0076000D01*
X0181000Y0076000D01*
X0211000Y0046000D01*
X0211000Y0021000D01*
X0221000Y0021000D02*
X0221000Y0036000D01*
X0226000Y0041000D01*
X0266000Y0041000D01*
X0266000Y0071000D01*
X0291000Y0096000D01*
X0301000Y0106000D02*
X0301000Y0056000D01*
X0256000Y0011000D01*
X0196000Y0011000D01*
X0191000Y0016000D01*
X0191000Y0021000D01*
X0091000Y0116000D02*
X0091000Y0121000D01*
X0111000Y0121000D02*
X0111000Y0181000D01*
X0086000Y0206000D01*
X0086000Y0256000D01*
X0136000Y0256000D02*
X0136000Y0246000D01*
X0136000Y0151000D01*
X0131000Y0146000D01*
X0121000Y0136000D01*
X0121000Y0121000D01*
X0131000Y0121000D02*
X0131000Y0131000D01*
X0146000Y0146000D01*
X0146000Y0256000D01*
X0156000Y0256000D02*
X0156000Y0141000D01*
X0161000Y0136000D01*
X0161000Y0121000D01*
X0171000Y0121000D02*
X0171000Y0136000D01*
X0166000Y0141000D01*
X0166000Y0256000D01*
X0176000Y0256000D02*
X0176000Y0241000D01*
X0251000Y0166000D01*
X0176000Y0251000D02*
X0176000Y0256039D01*
X0136000Y0246000D02*
X0136000Y0241984D01*
X0135016Y0150016D02*
X0131000Y0146000D01*
M02*
