%
M48
M72
T01C0.0320
T02C0.0400
T03C0.0440
T04C0.1300
%
T01
X1600Y4600
X3100Y4600
X3100Y8600
X2250Y9600
X1600Y8600
X2250Y10600
X2250Y11600
X25100Y12600
X25100Y16600
T02
X24100Y12100
X23100Y12100
X22100Y12100
X21100Y12100
X20100Y12100
X19100Y12100
X18100Y12100
X17100Y12100
X16100Y12100
X15100Y12100
X14100Y12100
X13100Y12100
X12100Y12100
X11100Y12100
X10100Y12100
X9100Y12100
X6600Y9600
X6600Y4100
X9100Y2100
X10100Y2100
X11100Y2100
X12100Y2100
X13100Y2100
X14100Y2100
X15100Y2100
X16100Y2100
X17100Y2100
X18100Y2100
X19100Y2100
X20100Y2100
X21100Y2100
X22100Y2100
X23100Y2100
X24100Y2100
X26600Y4100
X26600Y9600
X18600Y25600
X17600Y25600
X16600Y25600
X15600Y25600
X14600Y25600
X13600Y25600
X12600Y25600
X11600Y25600
X10600Y25600
X9600Y25600
X8600Y25600
X7600Y25600
X6600Y25600
X5600Y25600
X4600Y25600
X3600Y25600
T03
X29100Y10600
X30100Y10600
X31100Y10600
T04
X30100Y16500
M30
